<svg width="0" height="0" display="none" xmlns="http://www.w3.org/2000/svg">

  <symbol viewBox="0 0 24 24" id="github" fill="none" stroke="currentColor" stroke-width="2" stroke-linecap="round" stroke-linejoin="round"><path d="M15 22v-4a4.8 4.8 0 0 0-1-3.5c3 0 6-2 6-5.5.08-1.25-.27-2.48-1-3.5.28-1.15.28-2.35 0-3.5 0 0-1 0-3 1.5-2.64-.5-5.36-.5-8 0C6 2 5 2 5 2c-.3 1.15-.3 2.35 0 3.5A5.403 5.403 0 0 0 4 9c0 3.5 3 5.5 6 5.5-.39.49-.68 1.05-.85 1.65-.17.6-.22 1.23-.15 1.85v4"/><path d="M9 18c-4.51 2-5-2-7-2"/></symbol>

  <symbol viewBox="0 0 24 24" id="user" fill="none" stroke="currentColor" stroke-width="2" stroke-linecap="round" stroke-linejoin="round"><path d="M5 16v2"/><path d="M19 16v2"/><rect width="20" height="8" x="2" y="8" rx="2"/><path d="M18 12h.01"/></symbol>

  <symbol viewBox="0 0 24 24" id="radio" fill="none" stroke="currentColor" stroke-width="2" stroke-linecap="round" stroke-linejoin="round"><path d="M4.9 16.1C1 12.2 1 5.8 4.9 1.9"/><path d="M7.8 4.7a6.14 6.14 0 0 0-.8 7.5"/><circle cx="12" cy="9" r="2"/><path d="M16.2 4.8c2 2 2.26 5.11.8 7.47"/><path d="M19.1 1.9a9.96 9.96 0 0 1 0 14.1"/><path d="M9.5 18h5"/><path d="m8 22 4-11 4 11"/></symbol>

  <symbol id="p-play" viewBox="0 0 24 24"><path fill="currentColor" d="M12 22C6.477 22 2 17.523 2 12S6.477 2 12 2s10 4.477 10 10s-4.477 10-10 10m0-2a8 8 0 1 0 0-16a8 8 0 0 0 0 16M10.622 8.415l4.879 3.252a.4.4 0 0 1 0 .666l-4.88 3.252a.4.4 0 0 1-.621-.332V8.747a.4.4 0 0 1 .622-.332"></path></symbol>

  <symbol id="p-stop" viewBox="0 0 24 24"><path fill="currentColor" d="M12 22C6.477 22 2 17.523 2 12S6.477 2 12 2s10 4.477 10 10s-4.477 10-10 10m0-2a8 8 0 1 0 0-16a8 8 0 0 0 0 16M9 9h6v6H9z"></path></symbol>

  <symbol id="icon-prev" viewBox="0 0 24 24"><path fill="currentColor" d="M12 2c5.52 0 10 4.48 10 10s-4.48 10-10 10S2 17.52 2 12S6.48 2 12 2m0 18c4.42 0 8-3.58 8-8s-3.58-8-8-8s-8 3.58-8 8s3.58 8 8 8m0-9h4v2h-4v3l-4-4l4-4z"></path></symbol>

  <symbol id="icon-next" viewBox="0 0 24 24"><path fill="currentColor" d="M12 11V8l4 4l-4 4v-3H8v-2zm0-9c5.52 0 10 4.48 10 10s-4.48 10-10 10S2 17.52 2 12S6.48 2 12 2m0 18c4.42 0 8-3.58 8-8s-3.58-8-8-8s-8 3.58-8 8s3.58 8 8 8"></path></symbol>

</svg>