<svg xmlns="http://www.w3.org/2000/svg" viewBox=".405 21.25 118.395 36.9" data-asc="1.16" fill="#d3e5e4"><path d="M14.1 58q-3.25 0-5.55-1.9t-3.8-6.3L.8 38.4q-.8-2.25.02-4.15.83-1.9 3.08-2.4 2-.45 3.53.4 1.52.85 2.17 2.85l3.9 11.45q.7 2 1.73 2.95 1.02.95 2.52.45 1.4-.55 1.53-1.83.12-1.27-.58-2.97-.6-1.55-1.6-2.65-1-1.1-1.8-2.3-.8-1.2-.8-3 0-2.6 1.68-4.08 1.67-1.47 4.42-1.37 2.35.05 3.85 1.65 1.5 1.6 1.5 4.05 0 1.35-.45 2.9-.45 1.55-1 3.25l-2 6.3q-.8 2.5-1.77 4.32-.98 1.83-2.5 2.8-1.53.98-4.13.98zm13.65-31.95q0-2.15 1.33-3.48 1.32-1.32 3.67-1.32 2.5 0 3.73 1.3 1.22 1.3 1.22 3.45 0 2.1-1.22 3.37-1.23 1.28-3.73 1.28-2.45 0-3.72-1.28-1.28-1.27-1.28-3.32m5 31.95q-2.35 0-3.5-1.3t-1.15-3.25v-17.1q0-2.15 1.15-3.4t3.5-1.25q2.35 0 3.53 1.25 1.17 1.25 1.17 3.3v17.2q0 1.95-1.22 3.25Q35 58 32.75 58zM40 45q0-3.95 1.58-6.95 1.57-3 4.5-4.7 2.92-1.7 6.97-1.7 3.15 0 5.68 1.15 2.52 1.15 3.97 3.07 1.45 1.93 1.45 4.23 0 2.4-1.4 3.4t-4.15 1H48.1q0 1.3 1.03 2.15 1.02.85 3.47.85 1.25 0 2.32-.25 1.08-.25 2.21-.48 1.12-.22 2.52-.22 2 0 3.3 1.42 1.3 1.43 1.3 3.93 0 2.95-3.02 4.6-3.03 1.65-7.93 1.65-3.45 0-6.47-1.35-3.03-1.35-4.93-4.28Q40 49.6 40 45m16.2-2.15q.75 0 .5-.7-.2-.7-1.2-1.45t-2.9-.75q-2.2 0-3.27.95-1.08.95-1.08 1.95h7.95zM71.35 58q-2.2 0-3.52-1.33-1.33-1.32-1.33-3.27V36.85q0-2.1 1.25-3.55 1.25-1.45 3.6-1.45 2.3 0 3.5 1.45 1.2 1.45 1.2 3.65v2.5h.9q0-2.85 1.03-4.5Q79 33.3 80.6 32.57q1.6-.72 3.2-.72 3.85 0 5.65 2.77 1.8 2.78 1.8 7.88v10.9q0 1.95-1.3 3.27-1.3 1.33-3.5 1.33-2.25 0-3.57-1.33-1.33-1.32-1.33-3.27v-8.85q0-1.8-.67-2.8-.68-1-1.98-1-1.5 0-2.17 1.1-.68 1.1-.68 2.8v8.75q0 1.95-1.25 3.27Q73.55 58 71.35 58zm29.9 0q-3.7 0-5.78-2-2.07-2-2.07-5.6 0-3.6 2.4-5.23 2.4-1.62 6.15-1.62 2.2 0 4 .3 1.8.3 3.25.85h.15v-.75q0-1.15-.85-1.83-.85-.67-2.15-.62-1.25 0-2.13.15-.87.15-2.17.5-2.4.6-4.15-.1-1.75-.7-2.4-2.75-.6-2.15.28-3.6.87-1.45 2.67-2.25 1.55-.75 3.47-1.25 1.93-.5 4.18-.5 6.55 0 9.62 3.17 3.08 3.18 3.08 10.63v7.75q0 2.05-1.25 3.4T114.1 58q-2.4 0-3.57-1.35-1.18-1.35-1.18-3.3V52.2h-1q0 1.3-.47 2.65-.48 1.35-1.96 2.25-1.47.9-4.67.9m.5-10.95q0 .85.63 1.2.62.35 2.72.35 1.9 0 2.65-.35t.75-1.2q0-.8-.75-1.13-.75-.32-2.65-.32-2.1 0-2.72.32-.63.33-.63 1.13z"/></svg>